<?xml version="1.0" encoding="UTF-8"?>
<svg id="Layer_2" data-name="Layer 2" xmlns="http://www.w3.org/2000/svg" viewBox="0 0 759.94 297.6">
  <defs>
    <style>
      .cls-1 {
        fill: #00c47d;
      }

      .cls-2 {
        fill: #ffb600;
      }

      .cls-3 {
        fill: #fff;
      }
    </style>
  </defs>
  <g id="Layer_1-2" data-name="Layer 1">
    <path class="cls-3" d="M236.49,114.72h-119.57l9.49-39.27c.88-2.21,2.13-3.97,3.75-5.29,1.76-1.32,3.45-1.99,5.07-1.99l129.79-.16,5.29-21.81c9.08-24.7,23.43-40.1,43.03-46.2H124.2c-30.59,0-51.92,16.4-63.98,49.2L0,297.6h72.58l27.8-114.72h120.23l15.88-68.17Z"/>
    <path class="cls-1" d="M458.23,114.72h-119.57l9.49-39.27c.88-2.21,2.13-3.97,3.75-5.29,1.77-1.32,3.45-1.99,5.07-1.99l124.12-.16c.75-3.03,1.48-6.05,2.21-9.03,1.84-7.57,3.05-12.54,3.64-14.89,8.9-22.82,22.09-37.52,39.56-44.09h-180.55c-30.59,0-51.92,16.4-63.98,49.2l-60.23,248.4h72.58l27.8-114.72h120.23l15.88-68.17Z"/>
    <path class="cls-2" d="M571.01,68.17c-2.06,0-3.83.59-5.29,1.77-1.47,1.32-2.5,2.8-3.09,4.41-1.32,5.29-2.39,9.71-3.2,13.24-.81,3.53-1.58,6.8-2.32,9.82-.74,3.02-1.25,5.11-1.54,6.29-.44,2.8.14,5.22,1.76,7.28,1.62,2.06,3.75,3.09,6.4,3.09h107.88c19.85,0,35.74,7.8,47.65,23.38,11.91,15.44,15.59,33.24,11.03,53.39,0,.15-.08.37-.22.66,0,.3-.63,2.98-1.88,8.05-1.25,5.07-2.72,11.07-4.41,17.98-1.69,6.91-3.27,13.31-4.74,19.19-1.47,5.88-2.35,9.71-2.65,11.47-3.97,14.56-11.69,26.47-23.16,35.74-11.47,9.12-24.86,13.68-40.15,13.68h-338.59c2.94-12.65,5.44-23.2,7.5-31.66,2.06-8.46,3.94-16.25,5.62-23.38,1.69-7.13,2.76-11.8,3.2-14.01h312.56c4.12,0,6.98-2.13,8.6-6.4,1.32-5.29,2.39-9.71,3.2-13.24.81-3.53,1.58-6.8,2.32-9.82.73-3.01,1.25-5.11,1.54-6.29,1.03-2.65.73-5.07-.88-7.28-1.62-2.21-3.75-3.31-6.4-3.31h.22-108.76c-20,0-35.96-7.57-47.87-22.72-12.06-15.15-15.74-33.01-11.03-53.61v-.66l.44-1.99c.88-3.38,2.32-9.04,4.3-16.99,1.99-7.94,3.89-15.7,5.74-23.27,1.84-7.57,3.05-12.54,3.64-14.89,12.5-32.06,33.46-48.09,62.87-48.09h198.64c-2.94,12.5-5.44,22.91-7.5,31.22-2.06,8.31-3.94,15.99-5.63,23.05-1.69,7.06-2.76,11.69-3.2,13.9h-172.61Z"/>
  </g>
</svg>